<svg width="185" height="72" viewBox="0 0 185 72" fill="none" xmlns="http://www.w3.org/2000/svg">
<g filter="url(#filter0_d)">
<circle cx="36" cy="32" r="30" fill="#FF5858"/>
<circle cx="36" cy="32" r="30" fill="url(#paint0_linear)" fill-opacity="0.3"/>
</g>
<path d="M47.5574 21L35 42.75H60.1147L47.5574 21Z" fill="#FFF7F7"/>
<path d="M36.5574 21L24 42.75H49.1147L36.5574 21Z" fill="#CACACA"/>
<path d="M24.5574 21L12 42.75H37.1147L24.5574 21Z" fill="#F4F1D0" fill-opacity="0.9"/>
<path d="M90.301 25.2092C90.781 25.2092 91.201 25.1522 91.561 25.0382C91.921 24.9182 92.221 24.7532 92.461 24.5432C92.701 24.3332 92.881 24.0842 93.001 23.7962C93.121 23.5022 93.181 23.1782 93.181 22.8242C93.181 22.1162 92.947 21.5762 92.479 21.2042C92.011 20.8322 91.303 20.6462 90.355 20.6462H88.645V25.2092H90.301ZM96.403 31.9592H94.522C94.15 31.9592 93.88 31.8152 93.712 31.5272L90.688 27.1622C90.586 27.0122 90.475 26.9042 90.355 26.8382C90.235 26.7722 90.055 26.7392 89.815 26.7392H88.645V31.9592H86.539V18.9992H90.355C91.207 18.9992 91.939 19.0862 92.551 19.2602C93.169 19.4342 93.676 19.6832 94.072 20.0072C94.468 20.3252 94.759 20.7092 94.945 21.1592C95.137 21.6092 95.233 22.1102 95.233 22.6622C95.233 23.1122 95.164 23.5322 95.026 23.9222C94.894 24.3122 94.699 24.6662 94.441 24.9842C94.189 25.3022 93.877 25.5782 93.505 25.8122C93.133 26.0462 92.71 26.2292 92.236 26.3612C92.494 26.5172 92.716 26.7362 92.902 27.0182L96.403 31.9592ZM106.056 30.2582L106.047 31.9592H97.9648V18.9992H106.047V20.7002H100.08V24.6062H104.85V26.2532H100.08V30.2582H106.056ZM119.712 25.4792C119.712 26.4392 119.556 27.3182 119.244 28.1162C118.932 28.9082 118.491 29.5892 117.921 30.1592C117.357 30.7292 116.676 31.1732 115.878 31.4912C115.086 31.8032 114.204 31.9592 113.232 31.9592H108.336V18.9992H113.232C114.204 18.9992 115.086 19.1582 115.878 19.4762C116.676 19.7882 117.357 20.2292 117.921 20.7992C118.491 21.3692 118.932 22.0532 119.244 22.8512C119.556 23.6432 119.712 24.5192 119.712 25.4792ZM117.561 25.4792C117.561 24.7352 117.459 24.0662 117.255 23.4722C117.057 22.8782 116.769 22.3772 116.391 21.9692C116.019 21.5612 115.566 21.2492 115.032 21.0332C114.498 20.8112 113.898 20.7002 113.232 20.7002H110.451V30.2582H113.232C113.898 30.2582 114.498 30.1502 115.032 29.9342C115.566 29.7182 116.019 29.4062 116.391 28.9982C116.769 28.5842 117.057 28.0832 117.255 27.4952C117.459 26.9012 117.561 26.2292 117.561 25.4792Z" fill="#FF5858"/>
<path d="M90.301 25.2092C90.781 25.2092 91.201 25.1522 91.561 25.0382C91.921 24.9182 92.221 24.7532 92.461 24.5432C92.701 24.3332 92.881 24.0842 93.001 23.7962C93.121 23.5022 93.181 23.1782 93.181 22.8242C93.181 22.1162 92.947 21.5762 92.479 21.2042C92.011 20.8322 91.303 20.6462 90.355 20.6462H88.645V25.2092H90.301ZM96.403 31.9592H94.522C94.15 31.9592 93.88 31.8152 93.712 31.5272L90.688 27.1622C90.586 27.0122 90.475 26.9042 90.355 26.8382C90.235 26.7722 90.055 26.7392 89.815 26.7392H88.645V31.9592H86.539V18.9992H90.355C91.207 18.9992 91.939 19.0862 92.551 19.2602C93.169 19.4342 93.676 19.6832 94.072 20.0072C94.468 20.3252 94.759 20.7092 94.945 21.1592C95.137 21.6092 95.233 22.1102 95.233 22.6622C95.233 23.1122 95.164 23.5322 95.026 23.9222C94.894 24.3122 94.699 24.6662 94.441 24.9842C94.189 25.3022 93.877 25.5782 93.505 25.8122C93.133 26.0462 92.71 26.2292 92.236 26.3612C92.494 26.5172 92.716 26.7362 92.902 27.0182L96.403 31.9592ZM106.056 30.2582L106.047 31.9592H97.9648V18.9992H106.047V20.7002H100.08V24.6062H104.85V26.2532H100.08V30.2582H106.056ZM119.712 25.4792C119.712 26.4392 119.556 27.3182 119.244 28.1162C118.932 28.9082 118.491 29.5892 117.921 30.1592C117.357 30.7292 116.676 31.1732 115.878 31.4912C115.086 31.8032 114.204 31.9592 113.232 31.9592H108.336V18.9992H113.232C114.204 18.9992 115.086 19.1582 115.878 19.4762C116.676 19.7882 117.357 20.2292 117.921 20.7992C118.491 21.3692 118.932 22.0532 119.244 22.8512C119.556 23.6432 119.712 24.5192 119.712 25.4792ZM117.561 25.4792C117.561 24.7352 117.459 24.0662 117.255 23.4722C117.057 22.8782 116.769 22.3772 116.391 21.9692C116.019 21.5612 115.566 21.2492 115.032 21.0332C114.498 20.8112 113.898 20.7002 113.232 20.7002H110.451V30.2582H113.232C113.898 30.2582 114.498 30.1502 115.032 29.9342C115.566 29.7182 116.019 29.4062 116.391 28.9982C116.769 28.5842 117.057 28.0832 117.255 27.4952C117.459 26.9012 117.561 26.2292 117.561 25.4792Z" fill="url(#paint1_linear)" fill-opacity="0.4"/>
<path d="M126.907 24.52C126.907 25.27 127.009 25.942 127.213 26.536C127.417 27.13 127.708 27.634 128.086 28.048C128.464 28.456 128.92 28.771 129.454 28.993C129.988 29.209 130.585 29.317 131.245 29.317C131.911 29.317 132.511 29.209 133.045 28.993C133.579 28.771 134.032 28.456 134.404 28.048C134.782 27.634 135.07 27.13 135.268 26.536C135.472 25.942 135.574 25.27 135.574 24.52C135.574 23.776 135.472 23.107 135.268 22.513C135.07 21.919 134.782 21.415 134.404 21.001C134.032 20.587 133.579 20.269 133.045 20.047C132.511 19.825 131.911 19.714 131.245 19.714C130.585 19.714 129.988 19.825 129.454 20.047C128.92 20.269 128.464 20.587 128.086 21.001C127.708 21.415 127.417 21.919 127.213 22.513C127.009 23.107 126.907 23.776 126.907 24.52ZM138.364 33.592H136.636C136.378 33.592 136.15 33.556 135.952 33.484C135.754 33.418 135.571 33.295 135.403 33.115L133.333 30.838C132.685 31.036 131.989 31.135 131.245 31.135C130.279 31.135 129.397 30.97 128.599 30.64C127.807 30.31 127.126 29.854 126.556 29.272C125.986 28.684 125.545 27.985 125.233 27.175C124.921 26.365 124.765 25.48 124.765 24.52C124.765 23.56 124.921 22.675 125.233 21.865C125.545 21.055 125.986 20.356 126.556 19.768C127.126 19.18 127.807 18.721 128.599 18.391C129.397 18.061 130.279 17.896 131.245 17.896C132.217 17.896 133.099 18.061 133.891 18.391C134.689 18.721 135.37 19.18 135.934 19.768C136.504 20.356 136.945 21.055 137.257 21.865C137.569 22.675 137.725 23.56 137.725 24.52C137.725 25.114 137.665 25.681 137.545 26.221C137.425 26.755 137.251 27.256 137.023 27.724C136.795 28.186 136.516 28.612 136.186 29.002C135.856 29.386 135.481 29.722 135.061 30.01L138.364 33.592ZM145.135 29.299C145.633 29.299 146.077 29.215 146.467 29.047C146.863 28.879 147.196 28.645 147.466 28.345C147.742 28.045 147.952 27.685 148.096 27.265C148.24 26.839 148.312 26.368 148.312 25.852V18.04H150.409V25.852C150.409 26.614 150.286 27.319 150.04 27.967C149.8 28.615 149.452 29.176 148.996 29.65C148.54 30.118 147.985 30.487 147.331 30.757C146.683 31.021 145.951 31.153 145.135 31.153C144.319 31.153 143.584 31.021 142.93 30.757C142.282 30.487 141.73 30.118 141.274 29.65C140.818 29.176 140.467 28.615 140.221 27.967C139.981 27.319 139.861 26.614 139.861 25.852V18.04H141.967V25.843C141.967 26.359 142.039 26.83 142.183 27.256C142.327 27.676 142.534 28.039 142.804 28.345C143.074 28.645 143.404 28.879 143.794 29.047C144.19 29.215 144.637 29.299 145.135 29.299ZM161.421 29.299L161.412 31H153.33V18.04H161.412V19.741H155.445V23.647H160.215V25.294H155.445V29.299H161.421ZM171.792 29.299L171.783 31H163.701V18.04H171.783V19.741H165.816V23.647H170.586V25.294H165.816V29.299H171.792ZM184.8 18.04V31H183.729C183.567 31 183.429 30.973 183.315 30.919C183.201 30.859 183.093 30.763 182.991 30.631L175.872 21.487C175.89 21.661 175.902 21.835 175.908 22.009C175.92 22.177 175.926 22.333 175.926 22.477V31H174.072V18.04H175.17C175.26 18.04 175.335 18.046 175.395 18.058C175.461 18.064 175.521 18.079 175.575 18.103C175.629 18.127 175.68 18.163 175.728 18.211C175.776 18.259 175.827 18.319 175.881 18.391L183.009 27.544C182.991 27.358 182.976 27.175 182.964 26.995C182.958 26.815 182.955 26.647 182.955 26.491V18.04H184.8Z" fill="#FF5858"/>
<path d="M126.907 24.52C126.907 25.27 127.009 25.942 127.213 26.536C127.417 27.13 127.708 27.634 128.086 28.048C128.464 28.456 128.92 28.771 129.454 28.993C129.988 29.209 130.585 29.317 131.245 29.317C131.911 29.317 132.511 29.209 133.045 28.993C133.579 28.771 134.032 28.456 134.404 28.048C134.782 27.634 135.07 27.13 135.268 26.536C135.472 25.942 135.574 25.27 135.574 24.52C135.574 23.776 135.472 23.107 135.268 22.513C135.07 21.919 134.782 21.415 134.404 21.001C134.032 20.587 133.579 20.269 133.045 20.047C132.511 19.825 131.911 19.714 131.245 19.714C130.585 19.714 129.988 19.825 129.454 20.047C128.92 20.269 128.464 20.587 128.086 21.001C127.708 21.415 127.417 21.919 127.213 22.513C127.009 23.107 126.907 23.776 126.907 24.52ZM138.364 33.592H136.636C136.378 33.592 136.15 33.556 135.952 33.484C135.754 33.418 135.571 33.295 135.403 33.115L133.333 30.838C132.685 31.036 131.989 31.135 131.245 31.135C130.279 31.135 129.397 30.97 128.599 30.64C127.807 30.31 127.126 29.854 126.556 29.272C125.986 28.684 125.545 27.985 125.233 27.175C124.921 26.365 124.765 25.48 124.765 24.52C124.765 23.56 124.921 22.675 125.233 21.865C125.545 21.055 125.986 20.356 126.556 19.768C127.126 19.18 127.807 18.721 128.599 18.391C129.397 18.061 130.279 17.896 131.245 17.896C132.217 17.896 133.099 18.061 133.891 18.391C134.689 18.721 135.37 19.18 135.934 19.768C136.504 20.356 136.945 21.055 137.257 21.865C137.569 22.675 137.725 23.56 137.725 24.52C137.725 25.114 137.665 25.681 137.545 26.221C137.425 26.755 137.251 27.256 137.023 27.724C136.795 28.186 136.516 28.612 136.186 29.002C135.856 29.386 135.481 29.722 135.061 30.01L138.364 33.592ZM145.135 29.299C145.633 29.299 146.077 29.215 146.467 29.047C146.863 28.879 147.196 28.645 147.466 28.345C147.742 28.045 147.952 27.685 148.096 27.265C148.24 26.839 148.312 26.368 148.312 25.852V18.04H150.409V25.852C150.409 26.614 150.286 27.319 150.04 27.967C149.8 28.615 149.452 29.176 148.996 29.65C148.54 30.118 147.985 30.487 147.331 30.757C146.683 31.021 145.951 31.153 145.135 31.153C144.319 31.153 143.584 31.021 142.93 30.757C142.282 30.487 141.73 30.118 141.274 29.65C140.818 29.176 140.467 28.615 140.221 27.967C139.981 27.319 139.861 26.614 139.861 25.852V18.04H141.967V25.843C141.967 26.359 142.039 26.83 142.183 27.256C142.327 27.676 142.534 28.039 142.804 28.345C143.074 28.645 143.404 28.879 143.794 29.047C144.19 29.215 144.637 29.299 145.135 29.299ZM161.421 29.299L161.412 31H153.33V18.04H161.412V19.741H155.445V23.647H160.215V25.294H155.445V29.299H161.421ZM171.792 29.299L171.783 31H163.701V18.04H171.783V19.741H165.816V23.647H170.586V25.294H165.816V29.299H171.792ZM184.8 18.04V31H183.729C183.567 31 183.429 30.973 183.315 30.919C183.201 30.859 183.093 30.763 182.991 30.631L175.872 21.487C175.89 21.661 175.902 21.835 175.908 22.009C175.92 22.177 175.926 22.333 175.926 22.477V31H174.072V18.04H175.17C175.26 18.04 175.335 18.046 175.395 18.058C175.461 18.064 175.521 18.079 175.575 18.103C175.629 18.127 175.68 18.163 175.728 18.211C175.776 18.259 175.827 18.319 175.881 18.391L183.009 27.544C182.991 27.358 182.976 27.175 182.964 26.995C182.958 26.815 182.955 26.647 182.955 26.491V18.04H184.8Z" fill="url(#paint2_linear)" fill-opacity="0.4"/>
<path d="M90.954 41.1415C90.915 41.2065 90.8717 41.2563 90.824 41.291C90.7807 41.3213 90.7265 41.3365 90.6615 41.3365C90.5878 41.3365 90.5012 41.2997 90.4015 41.226C90.3018 41.1523 90.1762 41.0722 90.0245 40.9855C89.8772 40.8945 89.6973 40.8122 89.485 40.7385C89.277 40.6648 89.0235 40.628 88.7245 40.628C88.4428 40.628 88.1937 40.667 87.977 40.745C87.7647 40.8187 87.5848 40.9205 87.4375 41.0505C87.2945 41.1805 87.1862 41.3343 87.1125 41.512C87.0388 41.6853 87.002 41.8738 87.002 42.0775C87.002 42.3375 87.0648 42.5542 87.1905 42.7275C87.3205 42.8965 87.4895 43.0417 87.6975 43.163C87.9098 43.2843 88.1482 43.3905 88.4125 43.4815C88.6812 43.5682 88.9542 43.6592 89.2315 43.7545C89.5132 43.8498 89.7862 43.9582 90.0505 44.0795C90.3192 44.1965 90.5575 44.346 90.7655 44.528C90.9778 44.71 91.1468 44.9332 91.2725 45.1975C91.4025 45.4618 91.4675 45.7868 91.4675 46.1725C91.4675 46.5798 91.3982 46.9633 91.2595 47.323C91.1208 47.6783 90.9172 47.9882 90.6485 48.2525C90.3842 48.5168 90.057 48.7248 89.667 48.8765C89.2813 49.0282 88.8415 49.104 88.3475 49.104C87.7408 49.104 87.1905 48.9957 86.6965 48.779C86.2025 48.558 85.78 48.2612 85.429 47.8885L85.793 47.2905C85.8277 47.2428 85.8688 47.2038 85.9165 47.1735C85.9685 47.1388 86.0248 47.1215 86.0855 47.1215C86.1418 47.1215 86.2047 47.1453 86.274 47.193C86.3477 47.2363 86.43 47.2927 86.521 47.362C86.612 47.4313 86.716 47.5072 86.833 47.5895C86.95 47.6718 87.0822 47.7477 87.2295 47.817C87.3812 47.8863 87.5523 47.9448 87.743 47.9925C87.9337 48.0358 88.1482 48.0575 88.3865 48.0575C88.6855 48.0575 88.952 48.0163 89.186 47.934C89.42 47.8517 89.6172 47.7368 89.7775 47.5895C89.9422 47.4378 90.0678 47.258 90.1545 47.05C90.2412 46.842 90.2845 46.6102 90.2845 46.3545C90.2845 46.0728 90.2195 45.8432 90.0895 45.6655C89.9638 45.4835 89.797 45.3318 89.589 45.2105C89.381 45.0892 89.1427 44.9873 88.874 44.905C88.6053 44.8183 88.3323 44.7317 88.055 44.645C87.7777 44.554 87.5047 44.45 87.236 44.333C86.9673 44.216 86.729 44.0643 86.521 43.878C86.313 43.6917 86.144 43.4598 86.014 43.1825C85.8883 42.9008 85.8255 42.5542 85.8255 42.1425C85.8255 41.8132 85.8883 41.4947 86.014 41.187C86.144 40.8793 86.3303 40.6063 86.573 40.368C86.82 40.1297 87.1212 39.939 87.4765 39.796C87.8362 39.653 88.2478 39.5815 88.7115 39.5815C89.2315 39.5815 89.7038 39.6638 90.1285 39.8285C90.5575 39.9932 90.9345 40.2315 91.2595 40.5435L90.954 41.1415ZM101.854 44.346C101.854 45.0437 101.744 45.685 101.523 46.27C101.302 46.8507 100.99 47.3512 100.587 47.7715C100.184 48.1918 99.6983 48.519 99.1306 48.753C98.5673 48.9827 97.9433 49.0975 97.2586 49.0975C96.5739 49.0975 95.9499 48.9827 95.3866 48.753C94.8233 48.519 94.3401 48.1918 93.9371 47.7715C93.5341 47.3512 93.2221 46.8507 93.0011 46.27C92.7801 45.685 92.6696 45.0437 92.6696 44.346C92.6696 43.6483 92.7801 43.0092 93.0011 42.4285C93.2221 41.8435 93.5341 41.3408 93.9371 40.9205C94.3401 40.4958 94.8233 40.1665 95.3866 39.9325C95.9499 39.6985 96.5739 39.5815 97.2586 39.5815C97.9433 39.5815 98.5673 39.6985 99.1306 39.9325C99.6983 40.1665 100.184 40.4958 100.587 40.9205C100.99 41.3408 101.302 41.8435 101.523 42.4285C101.744 43.0092 101.854 43.6483 101.854 44.346ZM100.561 44.346C100.561 43.774 100.483 43.2605 100.327 42.8055C100.171 42.3505 99.9496 41.967 99.6636 41.655C99.3776 41.3387 99.0309 41.096 98.6236 40.927C98.2163 40.758 97.7613 40.6735 97.2586 40.6735C96.7603 40.6735 96.3074 40.758 95.9001 40.927C95.4928 41.096 95.1439 41.3387 94.8536 41.655C94.5676 41.967 94.3466 42.3505 94.1906 42.8055C94.0346 43.2605 93.9566 43.774 93.9566 44.346C93.9566 44.918 94.0346 45.4315 94.1906 45.8865C94.3466 46.3372 94.5676 46.7207 94.8536 47.037C95.1439 47.349 95.4928 47.5895 95.9001 47.7585C96.3074 47.9232 96.7603 48.0055 97.2586 48.0055C97.7613 48.0055 98.2163 47.9232 98.6236 47.7585C99.0309 47.5895 99.3776 47.349 99.6636 47.037C99.9496 46.7207 100.171 46.3372 100.327 45.8865C100.483 45.4315 100.561 44.918 100.561 44.346ZM108.943 47.9405V49H103.658V39.6855H104.913V47.9405H108.943ZM113.588 47.999C113.973 47.999 114.318 47.934 114.621 47.804C114.925 47.674 115.18 47.492 115.388 47.258C115.601 47.024 115.761 46.7445 115.869 46.4195C115.982 46.0945 116.038 45.737 116.038 45.347V39.6855H117.293V45.347C117.293 45.8843 117.206 46.3827 117.033 46.842C116.864 47.3013 116.619 47.7 116.298 48.038C115.982 48.3717 115.594 48.6338 115.135 48.8245C114.675 49.0152 114.16 49.1105 113.588 49.1105C113.016 49.1105 112.5 49.0152 112.041 48.8245C111.581 48.6338 111.191 48.3717 110.871 48.038C110.55 47.7 110.303 47.3013 110.13 46.842C109.961 46.3827 109.876 45.8843 109.876 45.347V39.6855H111.131V45.3405C111.131 45.7305 111.185 46.088 111.293 46.413C111.406 46.738 111.566 47.0175 111.774 47.2515C111.987 47.4855 112.244 47.6697 112.548 47.804C112.855 47.934 113.202 47.999 113.588 47.999ZM125.851 40.745H122.835V49H121.581V40.745H118.558V39.6855H125.851V40.745ZM128.494 49H127.233V39.6855H128.494V49ZM139.483 44.346C139.483 45.0437 139.373 45.685 139.152 46.27C138.931 46.8507 138.619 47.3512 138.216 47.7715C137.813 48.1918 137.327 48.519 136.76 48.753C136.196 48.9827 135.572 49.0975 134.888 49.0975C134.203 49.0975 133.579 48.9827 133.016 48.753C132.452 48.519 131.969 48.1918 131.566 47.7715C131.163 47.3512 130.851 46.8507 130.63 46.27C130.409 45.685 130.299 45.0437 130.299 44.346C130.299 43.6483 130.409 43.0092 130.63 42.4285C130.851 41.8435 131.163 41.3408 131.566 40.9205C131.969 40.4958 132.452 40.1665 133.016 39.9325C133.579 39.6985 134.203 39.5815 134.888 39.5815C135.572 39.5815 136.196 39.6985 136.76 39.9325C137.327 40.1665 137.813 40.4958 138.216 40.9205C138.619 41.3408 138.931 41.8435 139.152 42.4285C139.373 43.0092 139.483 43.6483 139.483 44.346ZM138.19 44.346C138.19 43.774 138.112 43.2605 137.956 42.8055C137.8 42.3505 137.579 41.967 137.293 41.655C137.007 41.3387 136.66 41.096 136.252 40.927C135.845 40.758 135.39 40.6735 134.888 40.6735C134.389 40.6735 133.936 40.758 133.529 40.927C133.122 41.096 132.773 41.3387 132.483 41.655C132.197 41.967 131.976 42.3505 131.82 42.8055C131.664 43.2605 131.586 43.774 131.586 44.346C131.586 44.918 131.664 45.4315 131.82 45.8865C131.976 46.3372 132.197 46.7207 132.483 47.037C132.773 47.349 133.122 47.5895 133.529 47.7585C133.936 47.9232 134.389 48.0055 134.888 48.0055C135.39 48.0055 135.845 47.9232 136.252 47.7585C136.66 47.5895 137.007 47.349 137.293 47.037C137.579 46.7207 137.8 46.3372 137.956 45.8865C138.112 45.4315 138.19 44.918 138.19 44.346ZM148.834 39.6855V49H148.203C148.103 49 148.019 48.9827 147.95 48.948C147.885 48.9133 147.82 48.8548 147.755 48.7725L142.366 41.7525C142.375 41.8608 142.381 41.967 142.386 42.071C142.39 42.175 142.392 42.2725 142.392 42.3635V49H141.287V39.6855H141.937C141.993 39.6855 142.041 39.6898 142.08 39.6985C142.119 39.7028 142.154 39.7137 142.184 39.731C142.214 39.744 142.245 39.7657 142.275 39.796C142.305 39.822 142.338 39.8567 142.373 39.9L147.761 46.9135C147.752 46.8008 147.744 46.6925 147.735 46.5885C147.731 46.4802 147.729 46.3783 147.729 46.283V39.6855H148.834ZM155.979 41.1415C155.94 41.2065 155.897 41.2563 155.849 41.291C155.806 41.3213 155.752 41.3365 155.687 41.3365C155.613 41.3365 155.527 41.2997 155.427 41.226C155.327 41.1523 155.202 41.0722 155.05 40.9855C154.903 40.8945 154.723 40.8122 154.51 40.7385C154.302 40.6648 154.049 40.628 153.75 40.628C153.468 40.628 153.219 40.667 153.002 40.745C152.79 40.8187 152.61 40.9205 152.463 41.0505C152.32 41.1805 152.212 41.3343 152.138 41.512C152.064 41.6853 152.027 41.8738 152.027 42.0775C152.027 42.3375 152.09 42.5542 152.216 42.7275C152.346 42.8965 152.515 43.0417 152.723 43.163C152.935 43.2843 153.174 43.3905 153.438 43.4815C153.707 43.5682 153.98 43.6592 154.257 43.7545C154.539 43.8498 154.812 43.9582 155.076 44.0795C155.345 44.1965 155.583 44.346 155.791 44.528C156.003 44.71 156.172 44.9332 156.298 45.1975C156.428 45.4618 156.493 45.7868 156.493 46.1725C156.493 46.5798 156.424 46.9633 156.285 47.323C156.146 47.6783 155.943 47.9882 155.674 48.2525C155.41 48.5168 155.082 48.7248 154.692 48.8765C154.307 49.0282 153.867 49.104 153.373 49.104C152.766 49.104 152.216 48.9957 151.722 48.779C151.228 48.558 150.805 48.2612 150.454 47.8885L150.818 47.2905C150.853 47.2428 150.894 47.2038 150.942 47.1735C150.994 47.1388 151.05 47.1215 151.111 47.1215C151.167 47.1215 151.23 47.1453 151.299 47.193C151.373 47.2363 151.455 47.2927 151.546 47.362C151.637 47.4313 151.741 47.5072 151.858 47.5895C151.975 47.6718 152.108 47.7477 152.255 47.817C152.407 47.8863 152.578 47.9448 152.768 47.9925C152.959 48.0358 153.174 48.0575 153.412 48.0575C153.711 48.0575 153.977 48.0163 154.211 47.934C154.445 47.8517 154.643 47.7368 154.803 47.5895C154.968 47.4378 155.093 47.258 155.18 47.05C155.267 46.842 155.31 46.6102 155.31 46.3545C155.31 46.0728 155.245 45.8432 155.115 45.6655C154.989 45.4835 154.822 45.3318 154.614 45.2105C154.406 45.0892 154.168 44.9873 153.899 44.905C153.631 44.8183 153.358 44.7317 153.08 44.645C152.803 44.554 152.53 44.45 152.261 44.333C151.993 44.216 151.754 44.0643 151.546 43.878C151.338 43.6917 151.169 43.4598 151.039 43.1825C150.914 42.9008 150.851 42.5542 150.851 42.1425C150.851 41.8132 150.914 41.4947 151.039 41.187C151.169 40.8793 151.356 40.6063 151.598 40.368C151.845 40.1297 152.147 39.939 152.502 39.796C152.862 39.653 153.273 39.5815 153.737 39.5815C154.257 39.5815 154.729 39.6638 155.154 39.8285C155.583 39.9932 155.96 40.2315 156.285 40.5435L155.979 41.1415Z" fill="#858181"/>
<path d="M90.954 41.1415C90.915 41.2065 90.8717 41.2563 90.824 41.291C90.7807 41.3213 90.7265 41.3365 90.6615 41.3365C90.5878 41.3365 90.5012 41.2997 90.4015 41.226C90.3018 41.1523 90.1762 41.0722 90.0245 40.9855C89.8772 40.8945 89.6973 40.8122 89.485 40.7385C89.277 40.6648 89.0235 40.628 88.7245 40.628C88.4428 40.628 88.1937 40.667 87.977 40.745C87.7647 40.8187 87.5848 40.9205 87.4375 41.0505C87.2945 41.1805 87.1862 41.3343 87.1125 41.512C87.0388 41.6853 87.002 41.8738 87.002 42.0775C87.002 42.3375 87.0648 42.5542 87.1905 42.7275C87.3205 42.8965 87.4895 43.0417 87.6975 43.163C87.9098 43.2843 88.1482 43.3905 88.4125 43.4815C88.6812 43.5682 88.9542 43.6592 89.2315 43.7545C89.5132 43.8498 89.7862 43.9582 90.0505 44.0795C90.3192 44.1965 90.5575 44.346 90.7655 44.528C90.9778 44.71 91.1468 44.9332 91.2725 45.1975C91.4025 45.4618 91.4675 45.7868 91.4675 46.1725C91.4675 46.5798 91.3982 46.9633 91.2595 47.323C91.1208 47.6783 90.9172 47.9882 90.6485 48.2525C90.3842 48.5168 90.057 48.7248 89.667 48.8765C89.2813 49.0282 88.8415 49.104 88.3475 49.104C87.7408 49.104 87.1905 48.9957 86.6965 48.779C86.2025 48.558 85.78 48.2612 85.429 47.8885L85.793 47.2905C85.8277 47.2428 85.8688 47.2038 85.9165 47.1735C85.9685 47.1388 86.0248 47.1215 86.0855 47.1215C86.1418 47.1215 86.2047 47.1453 86.274 47.193C86.3477 47.2363 86.43 47.2927 86.521 47.362C86.612 47.4313 86.716 47.5072 86.833 47.5895C86.95 47.6718 87.0822 47.7477 87.2295 47.817C87.3812 47.8863 87.5523 47.9448 87.743 47.9925C87.9337 48.0358 88.1482 48.0575 88.3865 48.0575C88.6855 48.0575 88.952 48.0163 89.186 47.934C89.42 47.8517 89.6172 47.7368 89.7775 47.5895C89.9422 47.4378 90.0678 47.258 90.1545 47.05C90.2412 46.842 90.2845 46.6102 90.2845 46.3545C90.2845 46.0728 90.2195 45.8432 90.0895 45.6655C89.9638 45.4835 89.797 45.3318 89.589 45.2105C89.381 45.0892 89.1427 44.9873 88.874 44.905C88.6053 44.8183 88.3323 44.7317 88.055 44.645C87.7777 44.554 87.5047 44.45 87.236 44.333C86.9673 44.216 86.729 44.0643 86.521 43.878C86.313 43.6917 86.144 43.4598 86.014 43.1825C85.8883 42.9008 85.8255 42.5542 85.8255 42.1425C85.8255 41.8132 85.8883 41.4947 86.014 41.187C86.144 40.8793 86.3303 40.6063 86.573 40.368C86.82 40.1297 87.1212 39.939 87.4765 39.796C87.8362 39.653 88.2478 39.5815 88.7115 39.5815C89.2315 39.5815 89.7038 39.6638 90.1285 39.8285C90.5575 39.9932 90.9345 40.2315 91.2595 40.5435L90.954 41.1415ZM101.854 44.346C101.854 45.0437 101.744 45.685 101.523 46.27C101.302 46.8507 100.99 47.3512 100.587 47.7715C100.184 48.1918 99.6983 48.519 99.1306 48.753C98.5673 48.9827 97.9433 49.0975 97.2586 49.0975C96.5739 49.0975 95.9499 48.9827 95.3866 48.753C94.8233 48.519 94.3401 48.1918 93.9371 47.7715C93.5341 47.3512 93.2221 46.8507 93.0011 46.27C92.7801 45.685 92.6696 45.0437 92.6696 44.346C92.6696 43.6483 92.7801 43.0092 93.0011 42.4285C93.2221 41.8435 93.5341 41.3408 93.9371 40.9205C94.3401 40.4958 94.8233 40.1665 95.3866 39.9325C95.9499 39.6985 96.5739 39.5815 97.2586 39.5815C97.9433 39.5815 98.5673 39.6985 99.1306 39.9325C99.6983 40.1665 100.184 40.4958 100.587 40.9205C100.99 41.3408 101.302 41.8435 101.523 42.4285C101.744 43.0092 101.854 43.6483 101.854 44.346ZM100.561 44.346C100.561 43.774 100.483 43.2605 100.327 42.8055C100.171 42.3505 99.9496 41.967 99.6636 41.655C99.3776 41.3387 99.0309 41.096 98.6236 40.927C98.2163 40.758 97.7613 40.6735 97.2586 40.6735C96.7603 40.6735 96.3074 40.758 95.9001 40.927C95.4928 41.096 95.1439 41.3387 94.8536 41.655C94.5676 41.967 94.3466 42.3505 94.1906 42.8055C94.0346 43.2605 93.9566 43.774 93.9566 44.346C93.9566 44.918 94.0346 45.4315 94.1906 45.8865C94.3466 46.3372 94.5676 46.7207 94.8536 47.037C95.1439 47.349 95.4928 47.5895 95.9001 47.7585C96.3074 47.9232 96.7603 48.0055 97.2586 48.0055C97.7613 48.0055 98.2163 47.9232 98.6236 47.7585C99.0309 47.5895 99.3776 47.349 99.6636 47.037C99.9496 46.7207 100.171 46.3372 100.327 45.8865C100.483 45.4315 100.561 44.918 100.561 44.346ZM108.943 47.9405V49H103.658V39.6855H104.913V47.9405H108.943ZM113.588 47.999C113.973 47.999 114.318 47.934 114.621 47.804C114.925 47.674 115.18 47.492 115.388 47.258C115.601 47.024 115.761 46.7445 115.869 46.4195C115.982 46.0945 116.038 45.737 116.038 45.347V39.6855H117.293V45.347C117.293 45.8843 117.206 46.3827 117.033 46.842C116.864 47.3013 116.619 47.7 116.298 48.038C115.982 48.3717 115.594 48.6338 115.135 48.8245C114.675 49.0152 114.16 49.1105 113.588 49.1105C113.016 49.1105 112.5 49.0152 112.041 48.8245C111.581 48.6338 111.191 48.3717 110.871 48.038C110.55 47.7 110.303 47.3013 110.13 46.842C109.961 46.3827 109.876 45.8843 109.876 45.347V39.6855H111.131V45.3405C111.131 45.7305 111.185 46.088 111.293 46.413C111.406 46.738 111.566 47.0175 111.774 47.2515C111.987 47.4855 112.244 47.6697 112.548 47.804C112.855 47.934 113.202 47.999 113.588 47.999ZM125.851 40.745H122.835V49H121.581V40.745H118.558V39.6855H125.851V40.745ZM128.494 49H127.233V39.6855H128.494V49ZM139.483 44.346C139.483 45.0437 139.373 45.685 139.152 46.27C138.931 46.8507 138.619 47.3512 138.216 47.7715C137.813 48.1918 137.327 48.519 136.76 48.753C136.196 48.9827 135.572 49.0975 134.888 49.0975C134.203 49.0975 133.579 48.9827 133.016 48.753C132.452 48.519 131.969 48.1918 131.566 47.7715C131.163 47.3512 130.851 46.8507 130.63 46.27C130.409 45.685 130.299 45.0437 130.299 44.346C130.299 43.6483 130.409 43.0092 130.63 42.4285C130.851 41.8435 131.163 41.3408 131.566 40.9205C131.969 40.4958 132.452 40.1665 133.016 39.9325C133.579 39.6985 134.203 39.5815 134.888 39.5815C135.572 39.5815 136.196 39.6985 136.76 39.9325C137.327 40.1665 137.813 40.4958 138.216 40.9205C138.619 41.3408 138.931 41.8435 139.152 42.4285C139.373 43.0092 139.483 43.6483 139.483 44.346ZM138.19 44.346C138.19 43.774 138.112 43.2605 137.956 42.8055C137.8 42.3505 137.579 41.967 137.293 41.655C137.007 41.3387 136.66 41.096 136.252 40.927C135.845 40.758 135.39 40.6735 134.888 40.6735C134.389 40.6735 133.936 40.758 133.529 40.927C133.122 41.096 132.773 41.3387 132.483 41.655C132.197 41.967 131.976 42.3505 131.82 42.8055C131.664 43.2605 131.586 43.774 131.586 44.346C131.586 44.918 131.664 45.4315 131.82 45.8865C131.976 46.3372 132.197 46.7207 132.483 47.037C132.773 47.349 133.122 47.5895 133.529 47.7585C133.936 47.9232 134.389 48.0055 134.888 48.0055C135.39 48.0055 135.845 47.9232 136.252 47.7585C136.66 47.5895 137.007 47.349 137.293 47.037C137.579 46.7207 137.8 46.3372 137.956 45.8865C138.112 45.4315 138.19 44.918 138.19 44.346ZM148.834 39.6855V49H148.203C148.103 49 148.019 48.9827 147.95 48.948C147.885 48.9133 147.82 48.8548 147.755 48.7725L142.366 41.7525C142.375 41.8608 142.381 41.967 142.386 42.071C142.39 42.175 142.392 42.2725 142.392 42.3635V49H141.287V39.6855H141.937C141.993 39.6855 142.041 39.6898 142.08 39.6985C142.119 39.7028 142.154 39.7137 142.184 39.731C142.214 39.744 142.245 39.7657 142.275 39.796C142.305 39.822 142.338 39.8567 142.373 39.9L147.761 46.9135C147.752 46.8008 147.744 46.6925 147.735 46.5885C147.731 46.4802 147.729 46.3783 147.729 46.283V39.6855H148.834ZM155.979 41.1415C155.94 41.2065 155.897 41.2563 155.849 41.291C155.806 41.3213 155.752 41.3365 155.687 41.3365C155.613 41.3365 155.527 41.2997 155.427 41.226C155.327 41.1523 155.202 41.0722 155.05 40.9855C154.903 40.8945 154.723 40.8122 154.51 40.7385C154.302 40.6648 154.049 40.628 153.75 40.628C153.468 40.628 153.219 40.667 153.002 40.745C152.79 40.8187 152.61 40.9205 152.463 41.0505C152.32 41.1805 152.212 41.3343 152.138 41.512C152.064 41.6853 152.027 41.8738 152.027 42.0775C152.027 42.3375 152.09 42.5542 152.216 42.7275C152.346 42.8965 152.515 43.0417 152.723 43.163C152.935 43.2843 153.174 43.3905 153.438 43.4815C153.707 43.5682 153.98 43.6592 154.257 43.7545C154.539 43.8498 154.812 43.9582 155.076 44.0795C155.345 44.1965 155.583 44.346 155.791 44.528C156.003 44.71 156.172 44.9332 156.298 45.1975C156.428 45.4618 156.493 45.7868 156.493 46.1725C156.493 46.5798 156.424 46.9633 156.285 47.323C156.146 47.6783 155.943 47.9882 155.674 48.2525C155.41 48.5168 155.082 48.7248 154.692 48.8765C154.307 49.0282 153.867 49.104 153.373 49.104C152.766 49.104 152.216 48.9957 151.722 48.779C151.228 48.558 150.805 48.2612 150.454 47.8885L150.818 47.2905C150.853 47.2428 150.894 47.2038 150.942 47.1735C150.994 47.1388 151.05 47.1215 151.111 47.1215C151.167 47.1215 151.23 47.1453 151.299 47.193C151.373 47.2363 151.455 47.2927 151.546 47.362C151.637 47.4313 151.741 47.5072 151.858 47.5895C151.975 47.6718 152.108 47.7477 152.255 47.817C152.407 47.8863 152.578 47.9448 152.768 47.9925C152.959 48.0358 153.174 48.0575 153.412 48.0575C153.711 48.0575 153.977 48.0163 154.211 47.934C154.445 47.8517 154.643 47.7368 154.803 47.5895C154.968 47.4378 155.093 47.258 155.18 47.05C155.267 46.842 155.31 46.6102 155.31 46.3545C155.31 46.0728 155.245 45.8432 155.115 45.6655C154.989 45.4835 154.822 45.3318 154.614 45.2105C154.406 45.0892 154.168 44.9873 153.899 44.905C153.631 44.8183 153.358 44.7317 153.08 44.645C152.803 44.554 152.53 44.45 152.261 44.333C151.993 44.216 151.754 44.0643 151.546 43.878C151.338 43.6917 151.169 43.4598 151.039 43.1825C150.914 42.9008 150.851 42.5542 150.851 42.1425C150.851 41.8132 150.914 41.4947 151.039 41.187C151.169 40.8793 151.356 40.6063 151.598 40.368C151.845 40.1297 152.147 39.939 152.502 39.796C152.862 39.653 153.273 39.5815 153.737 39.5815C154.257 39.5815 154.729 39.6638 155.154 39.8285C155.583 39.9932 155.96 40.2315 156.285 40.5435L155.979 41.1415Z" fill="url(#paint3_linear)" fill-opacity="0.4"/>
<defs>
<filter id="filter0_d" x="0" y="0" width="72" height="72" filterUnits="userSpaceOnUse" color-interpolation-filters="sRGB">
<feFlood flood-opacity="0" result="BackgroundImageFix"/>
<feColorMatrix in="SourceAlpha" type="matrix" values="0 0 0 0 0 0 0 0 0 0 0 0 0 0 0 0 0 0 127 0"/>
<feOffset dy="4"/>
<feGaussianBlur stdDeviation="3"/>
<feColorMatrix type="matrix" values="0 0 0 0 0 0 0 0 0 0 0 0 0 0 0 0 0 0 0.25 0"/>
<feBlend mode="normal" in2="BackgroundImageFix" result="effect1_dropShadow"/>
<feBlend mode="normal" in="SourceGraphic" in2="effect1_dropShadow" result="shape"/>
</filter>
<linearGradient id="paint0_linear" x1="36" y1="2" x2="36" y2="62" gradientUnits="userSpaceOnUse">
<stop stop-color="white"/>
<stop offset="1" stop-color="white" stop-opacity="0"/>
</linearGradient>
<linearGradient id="paint1_linear" x1="103.5" y1="13.9592" x2="103.5" y2="34.1021" gradientUnits="userSpaceOnUse">
<stop stop-color="#FAFAF5"/>
<stop offset="1" stop-color="white" stop-opacity="0"/>
</linearGradient>
<linearGradient id="paint2_linear" x1="155.5" y1="13" x2="155.5" y2="39" gradientUnits="userSpaceOnUse">
<stop stop-color="#FAFAF5"/>
<stop offset="1" stop-color="white" stop-opacity="0"/>
</linearGradient>
<linearGradient id="paint3_linear" x1="122" y1="36" x2="122" y2="61" gradientUnits="userSpaceOnUse">
<stop stop-color="white"/>
<stop offset="1" stop-color="white" stop-opacity="0"/>
</linearGradient>
</defs>
</svg>
