<svg width="149" height="49" viewBox="0 0 149 49" fill="none" xmlns="http://www.w3.org/2000/svg">
<path d="M5.382 12.178C5.838 12.178 6.234 12.121 6.57 12.007C6.912 11.893 7.191 11.737 7.407 11.539C7.629 11.335 7.794 11.095 7.902 10.819C8.01 10.543 8.064 10.24 8.064 9.91C8.064 9.25 7.845 8.743 7.407 8.389C6.975 8.035 6.312 7.858 5.418 7.858H3.87V12.178H5.382ZM11.61 19H9.423C9.009 19 8.709 18.838 8.523 18.514L5.787 14.347C5.685 14.191 5.571 14.08 5.445 14.014C5.325 13.948 5.145 13.915 4.905 13.915H3.87V19H1.449V5.986H5.418C6.3 5.986 7.056 6.079 7.686 6.265C8.322 6.445 8.841 6.7 9.243 7.03C9.651 7.36 9.951 7.756 10.143 8.218C10.335 8.674 10.431 9.178 10.431 9.73C10.431 10.168 10.365 10.582 10.233 10.972C10.107 11.362 9.921 11.716 9.675 12.034C9.435 12.352 9.135 12.631 8.775 12.871C8.421 13.111 8.016 13.3 7.56 13.438C7.716 13.528 7.86 13.636 7.992 13.762C8.124 13.882 8.244 14.026 8.352 14.194L11.61 19ZM15.4454 7.912V11.521H19.9994V13.384H15.4454V17.065H21.2234V19H13.0154V5.986H21.2234V7.912H15.4454ZM34.9249 12.493C34.9249 13.447 34.7659 14.323 34.4479 15.121C34.1299 15.919 33.6829 16.606 33.1069 17.182C32.5309 17.758 31.8379 18.205 31.0279 18.523C30.2179 18.841 29.3179 19 28.3279 19H23.3689V5.986H28.3279C29.3179 5.986 30.2179 6.148 31.0279 6.472C31.8379 6.79 32.5309 7.237 33.1069 7.813C33.6829 8.383 34.1299 9.067 34.4479 9.865C34.7659 10.663 34.9249 11.539 34.9249 12.493ZM32.4409 12.493C32.4409 11.779 32.3449 11.14 32.1529 10.576C31.9669 10.006 31.6939 9.526 31.3339 9.136C30.9799 8.74 30.5479 8.437 30.0379 8.227C29.5339 8.017 28.9639 7.912 28.3279 7.912H25.7989V17.074H28.3279C28.9639 17.074 29.5339 16.969 30.0379 16.759C30.5479 16.549 30.9799 16.249 31.3339 15.859C31.6939 15.463 31.9669 14.983 32.1529 14.419C32.3449 13.849 32.4409 13.207 32.4409 12.493Z" fill="#FF5858"/>
<path d="M45.159 12.493C45.159 13.207 45.255 13.849 45.447 14.419C45.639 14.983 45.912 15.463 46.266 15.859C46.626 16.249 47.058 16.549 47.562 16.759C48.072 16.969 48.645 17.074 49.281 17.074C49.917 17.074 50.487 16.969 50.991 16.759C51.501 16.549 51.933 16.249 52.287 15.859C52.641 15.463 52.914 14.983 53.106 14.419C53.298 13.849 53.394 13.207 53.394 12.493C53.394 11.779 53.298 11.14 53.106 10.576C52.914 10.006 52.641 9.523 52.287 9.127C51.933 8.731 51.501 8.428 50.991 8.218C50.487 8.008 49.917 7.903 49.281 7.903C48.645 7.903 48.072 8.008 47.562 8.218C47.058 8.428 46.626 8.731 46.266 9.127C45.912 9.523 45.639 10.006 45.447 10.576C45.255 11.14 45.159 11.779 45.159 12.493ZM56.544 21.547H54.546C54.258 21.547 53.997 21.508 53.763 21.43C53.535 21.352 53.325 21.208 53.133 20.998L51.225 18.892C50.919 18.976 50.604 19.039 50.28 19.081C49.962 19.123 49.629 19.144 49.281 19.144C48.297 19.144 47.4 18.979 46.59 18.649C45.78 18.313 45.084 17.848 44.502 17.254C43.926 16.66 43.479 15.958 43.161 15.148C42.843 14.332 42.684 13.447 42.684 12.493C42.684 11.539 42.843 10.657 43.161 9.847C43.479 9.031 43.926 8.326 44.502 7.732C45.084 7.138 45.78 6.676 46.59 6.346C47.4 6.01 48.297 5.842 49.281 5.842C49.941 5.842 50.562 5.92 51.144 6.076C51.726 6.226 52.26 6.442 52.746 6.724C53.232 7 53.667 7.339 54.051 7.741C54.441 8.137 54.771 8.581 55.041 9.073C55.311 9.565 55.515 10.099 55.653 10.675C55.797 11.251 55.869 11.857 55.869 12.493C55.869 13.075 55.809 13.633 55.689 14.167C55.569 14.695 55.395 15.19 55.167 15.652C54.945 16.114 54.672 16.54 54.348 16.93C54.024 17.314 53.655 17.653 53.241 17.947L56.544 21.547ZM63.2241 17.047C63.6921 17.047 64.1091 16.969 64.4751 16.813C64.8471 16.657 65.1591 16.438 65.4111 16.156C65.6631 15.874 65.8551 15.532 65.9871 15.13C66.1251 14.728 66.1941 14.278 66.1941 13.78V5.986H68.6151V13.78C68.6151 14.554 68.4891 15.271 68.2371 15.931C67.9911 16.585 67.6341 17.152 67.1661 17.632C66.7041 18.106 66.1401 18.478 65.4741 18.748C64.8081 19.012 64.0581 19.144 63.2241 19.144C62.3841 19.144 61.6311 19.012 60.9651 18.748C60.2991 18.478 59.7321 18.106 59.2641 17.632C58.8021 17.152 58.4451 16.585 58.1931 15.931C57.9471 15.271 57.8241 14.554 57.8241 13.78V5.986H60.2451V13.771C60.2451 14.269 60.3111 14.719 60.4431 15.121C60.5811 15.523 60.7761 15.868 61.0281 16.156C61.2861 16.438 61.5981 16.657 61.9641 16.813C62.3361 16.969 62.7561 17.047 63.2241 17.047ZM73.7755 7.912V11.521H78.3295V13.384H73.7755V17.065H79.5535V19H71.3455V5.986H79.5535V7.912H73.7755ZM84.129 7.912V11.521H88.683V13.384H84.129V17.065H89.907V19H81.699V5.986H89.907V7.912H84.129ZM103.024 5.986V19H101.782C101.59 19 101.428 18.97 101.296 18.91C101.17 18.844 101.047 18.736 100.927 18.586L94.1315 9.91C94.1675 10.306 94.1855 10.672 94.1855 11.008V19H92.0525V5.986H93.3215C93.4235 5.986 93.5105 5.992 93.5825 6.004C93.6605 6.01 93.7265 6.028 93.7805 6.058C93.8405 6.082 93.8975 6.121 93.9515 6.175C94.0055 6.223 94.0655 6.289 94.1315 6.373L100.954 15.085C100.936 14.875 100.921 14.668 100.909 14.464C100.897 14.26 100.891 14.071 100.891 13.897V5.986H103.024Z" fill="#F4F1D0"/>
<path d="M6.412 28.537C6.37 28.607 6.32333 28.6607 6.272 28.698C6.22533 28.7307 6.167 28.747 6.097 28.747C6.01767 28.747 5.92433 28.7073 5.817 28.628C5.70967 28.5487 5.57433 28.4623 5.411 28.369C5.25233 28.271 5.05867 28.1823 4.83 28.103C4.606 28.0237 4.333 27.984 4.011 27.984C3.70767 27.984 3.43933 28.026 3.206 28.11C2.97733 28.1893 2.78367 28.299 2.625 28.439C2.471 28.579 2.35433 28.7447 2.275 28.936C2.19567 29.1227 2.156 29.3257 2.156 29.545C2.156 29.825 2.22367 30.0583 2.359 30.245C2.499 30.427 2.681 30.5833 2.905 30.714C3.13367 30.8447 3.39033 30.959 3.675 31.057C3.96433 31.1503 4.25833 31.2483 4.557 31.351C4.86033 31.4537 5.15433 31.5703 5.439 31.701C5.72833 31.827 5.985 31.988 6.209 32.184C6.43767 32.38 6.61967 32.6203 6.755 32.905C6.895 33.1897 6.965 33.5397 6.965 33.955C6.965 34.3937 6.89033 34.8067 6.741 35.194C6.59167 35.5767 6.37233 35.9103 6.083 36.195C5.79833 36.4797 5.446 36.7037 5.026 36.867C4.61067 37.0303 4.137 37.112 3.605 37.112C2.95167 37.112 2.359 36.9953 1.827 36.762C1.295 36.524 0.84 36.2043 0.462 35.803L0.854 35.159C0.891333 35.1077 0.935667 35.0657 0.987 35.033C1.043 34.9957 1.10367 34.977 1.169 34.977C1.22967 34.977 1.29733 35.0027 1.372 35.054C1.45133 35.1007 1.54 35.1613 1.638 35.236C1.736 35.3107 1.848 35.3923 1.974 35.481C2.1 35.5697 2.24233 35.6513 2.401 35.726C2.56433 35.8007 2.74867 35.8637 2.954 35.915C3.15933 35.9617 3.39033 35.985 3.647 35.985C3.969 35.985 4.256 35.9407 4.508 35.852C4.76 35.7633 4.97233 35.6397 5.145 35.481C5.32233 35.3177 5.45767 35.124 5.551 34.9C5.64433 34.676 5.691 34.4263 5.691 34.151C5.691 33.8477 5.621 33.6003 5.481 33.409C5.34567 33.213 5.166 33.0497 4.942 32.919C4.718 32.7883 4.46133 32.6787 4.172 32.59C3.88267 32.4967 3.58867 32.4033 3.29 32.31C2.99133 32.212 2.69733 32.1 2.408 31.974C2.11867 31.848 1.862 31.6847 1.638 31.484C1.414 31.2833 1.232 31.0337 1.092 30.735C0.956667 30.4317 0.889 30.0583 0.889 29.615C0.889 29.2603 0.956667 28.9173 1.092 28.586C1.232 28.2547 1.43267 27.9607 1.694 27.704C1.96 27.4473 2.28433 27.242 2.667 27.088C3.05433 26.934 3.49767 26.857 3.997 26.857C4.557 26.857 5.06567 26.9457 5.523 27.123C5.985 27.3003 6.391 27.557 6.741 27.893L6.412 28.537ZM18.1506 31.988C18.1506 32.7393 18.0316 33.43 17.7936 34.06C17.5556 34.6853 17.2196 35.2243 16.7856 35.677C16.3516 36.1297 15.8289 36.482 15.2176 36.734C14.6109 36.9813 13.9389 37.105 13.2016 37.105C12.4642 37.105 11.7922 36.9813 11.1856 36.734C10.5789 36.482 10.0586 36.1297 9.62456 35.677C9.19056 35.2243 8.85456 34.6853 8.61656 34.06C8.37856 33.43 8.25956 32.7393 8.25956 31.988C8.25956 31.2367 8.37856 30.5483 8.61656 29.923C8.85456 29.293 9.19056 28.7517 9.62456 28.299C10.0586 27.8417 10.5789 27.487 11.1856 27.235C11.7922 26.983 12.4642 26.857 13.2016 26.857C13.9389 26.857 14.6109 26.983 15.2176 27.235C15.8289 27.487 16.3516 27.8417 16.7856 28.299C17.2196 28.7517 17.5556 29.293 17.7936 29.923C18.0316 30.5483 18.1506 31.2367 18.1506 31.988ZM16.7576 31.988C16.7576 31.372 16.6736 30.819 16.5056 30.329C16.3376 29.839 16.0996 29.426 15.7916 29.09C15.4836 28.7493 15.1102 28.488 14.6716 28.306C14.2329 28.124 13.7429 28.033 13.2016 28.033C12.6649 28.033 12.1772 28.124 11.7386 28.306C11.2999 28.488 10.9242 28.7493 10.6116 29.09C10.3036 29.426 10.0656 29.839 9.89756 30.329C9.72956 30.819 9.64556 31.372 9.64556 31.988C9.64556 32.604 9.72956 33.157 9.89756 33.647C10.0656 34.1323 10.3036 34.5453 10.6116 34.886C10.9242 35.222 11.2999 35.481 11.7386 35.663C12.1772 35.8403 12.6649 35.929 13.2016 35.929C13.7429 35.929 14.2329 35.8403 14.6716 35.663C15.1102 35.481 15.4836 35.222 15.7916 34.886C16.0996 34.5453 16.3376 34.1323 16.5056 33.647C16.6736 33.157 16.7576 32.604 16.7576 31.988ZM25.7845 35.859V37H20.0935V26.969H21.4445V35.859H25.7845ZM30.7868 35.922C31.2021 35.922 31.5731 35.852 31.8998 35.712C32.2264 35.572 32.5018 35.376 32.7258 35.124C32.9544 34.872 33.1271 34.571 33.2438 34.221C33.3651 33.871 33.4258 33.486 33.4258 33.066V26.969H34.7768V33.066C34.7768 33.6447 34.6834 34.1813 34.4968 34.676C34.3148 35.1707 34.0511 35.6 33.7058 35.964C33.3651 36.3233 32.9474 36.6057 32.4528 36.811C31.9581 37.0163 31.4028 37.119 30.7868 37.119C30.1708 37.119 29.6154 37.0163 29.1208 36.811C28.6261 36.6057 28.2061 36.3233 27.8608 35.964C27.5154 35.6 27.2494 35.1707 27.0628 34.676C26.8808 34.1813 26.7898 33.6447 26.7898 33.066V26.969H28.1408V33.059C28.1408 33.479 28.1991 33.864 28.3158 34.214C28.4371 34.564 28.6098 34.865 28.8338 35.117C29.0624 35.369 29.3401 35.5673 29.6668 35.712C29.9981 35.852 30.3714 35.922 30.7868 35.922ZM43.9937 28.11H40.7457V37H39.3947V28.11H36.1397V26.969H43.9937V28.11ZM46.8402 37H45.4822V26.969H46.8402V37ZM58.674 31.988C58.674 32.7393 58.555 33.43 58.317 34.06C58.079 34.6853 57.743 35.2243 57.309 35.677C56.875 36.1297 56.3523 36.482 55.741 36.734C55.1343 36.9813 54.4623 37.105 53.725 37.105C52.9877 37.105 52.3157 36.9813 51.709 36.734C51.1023 36.482 50.582 36.1297 50.148 35.677C49.714 35.2243 49.378 34.6853 49.14 34.06C48.902 33.43 48.783 32.7393 48.783 31.988C48.783 31.2367 48.902 30.5483 49.14 29.923C49.378 29.293 49.714 28.7517 50.148 28.299C50.582 27.8417 51.1023 27.487 51.709 27.235C52.3157 26.983 52.9877 26.857 53.725 26.857C54.4623 26.857 55.1343 26.983 55.741 27.235C56.3523 27.487 56.875 27.8417 57.309 28.299C57.743 28.7517 58.079 29.293 58.317 29.923C58.555 30.5483 58.674 31.2367 58.674 31.988ZM57.281 31.988C57.281 31.372 57.197 30.819 57.029 30.329C56.861 29.839 56.623 29.426 56.315 29.09C56.007 28.7493 55.6337 28.488 55.195 28.306C54.7563 28.124 54.2663 28.033 53.725 28.033C53.1883 28.033 52.7007 28.124 52.262 28.306C51.8233 28.488 51.4477 28.7493 51.135 29.09C50.827 29.426 50.589 29.839 50.421 30.329C50.253 30.819 50.169 31.372 50.169 31.988C50.169 32.604 50.253 33.157 50.421 33.647C50.589 34.1323 50.827 34.5453 51.135 34.886C51.4477 35.222 51.8233 35.481 52.262 35.663C52.7007 35.8403 53.1883 35.929 53.725 35.929C54.2663 35.929 54.7563 35.8403 55.195 35.663C55.6337 35.481 56.007 35.222 56.315 34.886C56.623 34.5453 56.861 34.1323 57.029 33.647C57.197 33.157 57.281 32.604 57.281 31.988ZM68.7439 26.969V37H68.0649C67.9576 37 67.8666 36.9813 67.7919 36.944C67.7219 36.9067 67.6519 36.8437 67.5819 36.755L61.7789 29.195C61.7883 29.3117 61.7953 29.426 61.7999 29.538C61.8046 29.65 61.8069 29.755 61.8069 29.853V37H60.6169V26.969H61.3169C61.3776 26.969 61.4289 26.9737 61.4709 26.983C61.5129 26.9877 61.5503 26.9993 61.5829 27.018C61.6156 27.032 61.6483 27.0553 61.6809 27.088C61.7136 27.116 61.7486 27.1533 61.7859 27.2L67.5889 34.753C67.5796 34.6317 67.5703 34.515 67.5609 34.403C67.5563 34.2863 67.5539 34.1767 67.5539 34.074V26.969H68.7439ZM76.4393 28.537C76.3973 28.607 76.3507 28.6607 76.2993 28.698C76.2527 28.7307 76.1943 28.747 76.1243 28.747C76.045 28.747 75.9517 28.7073 75.8443 28.628C75.737 28.5487 75.6017 28.4623 75.4383 28.369C75.2797 28.271 75.086 28.1823 74.8573 28.103C74.6333 28.0237 74.3603 27.984 74.0383 27.984C73.735 27.984 73.4667 28.026 73.2333 28.11C73.0047 28.1893 72.811 28.299 72.6523 28.439C72.4983 28.579 72.3817 28.7447 72.3023 28.936C72.223 29.1227 72.1833 29.3257 72.1833 29.545C72.1833 29.825 72.251 30.0583 72.3863 30.245C72.5263 30.427 72.7083 30.5833 72.9323 30.714C73.161 30.8447 73.4177 30.959 73.7023 31.057C73.9917 31.1503 74.2857 31.2483 74.5843 31.351C74.8877 31.4537 75.1817 31.5703 75.4663 31.701C75.7557 31.827 76.0123 31.988 76.2363 32.184C76.465 32.38 76.647 32.6203 76.7823 32.905C76.9223 33.1897 76.9923 33.5397 76.9923 33.955C76.9923 34.3937 76.9177 34.8067 76.7683 35.194C76.619 35.5767 76.3997 35.9103 76.1103 36.195C75.8257 36.4797 75.4733 36.7037 75.0533 36.867C74.638 37.0303 74.1643 37.112 73.6323 37.112C72.979 37.112 72.3863 36.9953 71.8543 36.762C71.3223 36.524 70.8673 36.2043 70.4893 35.803L70.8813 35.159C70.9187 35.1077 70.963 35.0657 71.0143 35.033C71.0703 34.9957 71.131 34.977 71.1963 34.977C71.257 34.977 71.3247 35.0027 71.3993 35.054C71.4787 35.1007 71.5673 35.1613 71.6653 35.236C71.7633 35.3107 71.8753 35.3923 72.0013 35.481C72.1273 35.5697 72.2697 35.6513 72.4283 35.726C72.5917 35.8007 72.776 35.8637 72.9813 35.915C73.1867 35.9617 73.4177 35.985 73.6743 35.985C73.9963 35.985 74.2833 35.9407 74.5353 35.852C74.7873 35.7633 74.9997 35.6397 75.1723 35.481C75.3497 35.3177 75.485 35.124 75.5783 34.9C75.6717 34.676 75.7183 34.4263 75.7183 34.151C75.7183 33.8477 75.6483 33.6003 75.5083 33.409C75.373 33.213 75.1933 33.0497 74.9693 32.919C74.7453 32.7883 74.4887 32.6787 74.1993 32.59C73.91 32.4967 73.616 32.4033 73.3173 32.31C73.0187 32.212 72.7247 32.1 72.4353 31.974C72.146 31.848 71.8893 31.6847 71.6653 31.484C71.4413 31.2833 71.2593 31.0337 71.1193 30.735C70.984 30.4317 70.9163 30.0583 70.9163 29.615C70.9163 29.2603 70.984 28.9173 71.1193 28.586C71.2593 28.2547 71.46 27.9607 71.7213 27.704C71.9873 27.4473 72.3117 27.242 72.6943 27.088C73.0817 26.934 73.525 26.857 74.0243 26.857C74.5843 26.857 75.093 26.9457 75.5503 27.123C76.0123 27.3003 76.4183 27.557 76.7683 27.893L76.4393 28.537Z" fill="#F4F1D0"/>
</svg>
