<svg width="228" height="72" viewBox="0 0 228 72" fill="none" xmlns="http://www.w3.org/2000/svg">
<g filter="url(#filter0_d)">
<circle cx="36" cy="32" r="30" fill="#FF5858"/>
</g>
<path d="M47.5574 21L35 42.75H60.1147L47.5574 21Z" fill="white" fill-opacity="0.9"/>
<path d="M36.5574 21L24 42.75H49.1147L36.5574 21Z" fill="#CACACA" fill-opacity="0.92"/>
<path d="M24.5574 21L12 42.75H37.1147L24.5574 21Z" fill="#F4F1D0" fill-opacity="0.92"/>
<path d="M84.301 21.25C84.781 21.25 85.201 21.193 85.561 21.079C85.921 20.959 86.221 20.794 86.461 20.584C86.701 20.374 86.881 20.125 87.001 19.837C87.121 19.543 87.181 19.219 87.181 18.865C87.181 18.157 86.947 17.617 86.479 17.245C86.011 16.873 85.303 16.687 84.355 16.687H82.645V21.25H84.301ZM90.403 28H88.522C88.15 28 87.88 27.856 87.712 27.568L84.688 23.203C84.586 23.053 84.475 22.945 84.355 22.879C84.235 22.813 84.055 22.78 83.815 22.78H82.645V28H80.539V15.04H84.355C85.207 15.04 85.939 15.127 86.551 15.301C87.169 15.475 87.676 15.724 88.072 16.048C88.468 16.366 88.759 16.75 88.945 17.2C89.137 17.65 89.233 18.151 89.233 18.703C89.233 19.153 89.164 19.573 89.026 19.963C88.894 20.353 88.699 20.707 88.441 21.025C88.189 21.343 87.877 21.619 87.505 21.853C87.133 22.087 86.71 22.27 86.236 22.402C86.494 22.558 86.716 22.777 86.902 23.059L90.403 28ZM100.056 26.299L100.047 28H91.9648V15.04H100.047V16.741H94.0798V20.647H98.8498V22.294H94.0798V26.299H100.056ZM113.712 21.52C113.712 22.48 113.556 23.359 113.244 24.157C112.932 24.949 112.491 25.63 111.921 26.2C111.357 26.77 110.676 27.214 109.878 27.532C109.086 27.844 108.204 28 107.232 28H102.336V15.04H107.232C108.204 15.04 109.086 15.199 109.878 15.517C110.676 15.829 111.357 16.27 111.921 16.84C112.491 17.41 112.932 18.094 113.244 18.892C113.556 19.684 113.712 20.56 113.712 21.52ZM111.561 21.52C111.561 20.776 111.459 20.107 111.255 19.513C111.057 18.919 110.769 18.418 110.391 18.01C110.019 17.602 109.566 17.29 109.032 17.074C108.498 16.852 107.898 16.741 107.232 16.741H104.451V26.299H107.232C107.898 26.299 108.498 26.191 109.032 25.975C109.566 25.759 110.019 25.447 110.391 25.039C110.769 24.625 111.057 24.124 111.255 23.536C111.459 22.942 111.561 22.27 111.561 21.52Z" fill="#FF5858"/>
<path d="M120.907 20.52C120.907 21.27 121.009 21.942 121.213 22.536C121.417 23.13 121.708 23.634 122.086 24.048C122.464 24.456 122.92 24.771 123.454 24.993C123.988 25.209 124.585 25.317 125.245 25.317C125.911 25.317 126.511 25.209 127.045 24.993C127.579 24.771 128.032 24.456 128.404 24.048C128.782 23.634 129.07 23.13 129.268 22.536C129.472 21.942 129.574 21.27 129.574 20.52C129.574 19.776 129.472 19.107 129.268 18.513C129.07 17.919 128.782 17.415 128.404 17.001C128.032 16.587 127.579 16.269 127.045 16.047C126.511 15.825 125.911 15.714 125.245 15.714C124.585 15.714 123.988 15.825 123.454 16.047C122.92 16.269 122.464 16.587 122.086 17.001C121.708 17.415 121.417 17.919 121.213 18.513C121.009 19.107 120.907 19.776 120.907 20.52ZM132.364 29.592H130.636C130.378 29.592 130.15 29.556 129.952 29.484C129.754 29.418 129.571 29.295 129.403 29.115L127.333 26.838C126.685 27.036 125.989 27.135 125.245 27.135C124.279 27.135 123.397 26.97 122.599 26.64C121.807 26.31 121.126 25.854 120.556 25.272C119.986 24.684 119.545 23.985 119.233 23.175C118.921 22.365 118.765 21.48 118.765 20.52C118.765 19.56 118.921 18.675 119.233 17.865C119.545 17.055 119.986 16.356 120.556 15.768C121.126 15.18 121.807 14.721 122.599 14.391C123.397 14.061 124.279 13.896 125.245 13.896C126.217 13.896 127.099 14.061 127.891 14.391C128.689 14.721 129.37 15.18 129.934 15.768C130.504 16.356 130.945 17.055 131.257 17.865C131.569 18.675 131.725 19.56 131.725 20.52C131.725 21.114 131.665 21.681 131.545 22.221C131.425 22.755 131.251 23.256 131.023 23.724C130.795 24.186 130.516 24.612 130.186 25.002C129.856 25.386 129.481 25.722 129.061 26.01L132.364 29.592ZM139.135 25.299C139.633 25.299 140.077 25.215 140.467 25.047C140.863 24.879 141.196 24.645 141.466 24.345C141.742 24.045 141.952 23.685 142.096 23.265C142.24 22.839 142.312 22.368 142.312 21.852V14.04H144.409V21.852C144.409 22.614 144.286 23.319 144.04 23.967C143.8 24.615 143.452 25.176 142.996 25.65C142.54 26.118 141.985 26.487 141.331 26.757C140.683 27.021 139.951 27.153 139.135 27.153C138.319 27.153 137.584 27.021 136.93 26.757C136.282 26.487 135.73 26.118 135.274 25.65C134.818 25.176 134.467 24.615 134.221 23.967C133.981 23.319 133.861 22.614 133.861 21.852V14.04H135.967V21.843C135.967 22.359 136.039 22.83 136.183 23.256C136.327 23.676 136.534 24.039 136.804 24.345C137.074 24.645 137.404 24.879 137.794 25.047C138.19 25.215 138.637 25.299 139.135 25.299ZM155.421 25.299L155.412 27H147.33V14.04H155.412V15.741H149.445V19.647H154.215V21.294H149.445V25.299H155.421ZM165.792 25.299L165.783 27H157.701V14.04H165.783V15.741H159.816V19.647H164.586V21.294H159.816V25.299H165.792ZM178.8 14.04V27H177.729C177.567 27 177.429 26.973 177.315 26.919C177.201 26.859 177.093 26.763 176.991 26.631L169.872 17.487C169.89 17.661 169.902 17.835 169.908 18.009C169.92 18.177 169.926 18.333 169.926 18.477V27H168.072V14.04H169.17C169.26 14.04 169.335 14.046 169.395 14.058C169.461 14.064 169.521 14.079 169.575 14.103C169.629 14.127 169.68 14.163 169.728 14.211C169.776 14.259 169.827 14.319 169.881 14.391L177.009 23.544C176.991 23.358 176.976 23.175 176.964 22.995C176.958 22.815 176.955 22.647 176.955 22.491V14.04H178.8Z" fill="#FF5858"/>
<path d="M85.412 37.537C85.37 37.607 85.3233 37.6607 85.272 37.698C85.2253 37.7307 85.167 37.747 85.097 37.747C85.0177 37.747 84.9243 37.7073 84.817 37.628C84.7097 37.5487 84.5743 37.4623 84.411 37.369C84.2523 37.271 84.0587 37.1823 83.83 37.103C83.606 37.0237 83.333 36.984 83.011 36.984C82.7077 36.984 82.4393 37.026 82.206 37.11C81.9773 37.1893 81.7837 37.299 81.625 37.439C81.471 37.579 81.3543 37.7447 81.275 37.936C81.1957 38.1227 81.156 38.3257 81.156 38.545C81.156 38.825 81.2237 39.0583 81.359 39.245C81.499 39.427 81.681 39.5833 81.905 39.714C82.1337 39.8447 82.3903 39.959 82.675 40.057C82.9643 40.1503 83.2583 40.2483 83.557 40.351C83.8603 40.4537 84.1543 40.5703 84.439 40.701C84.7283 40.827 84.985 40.988 85.209 41.184C85.4377 41.38 85.6197 41.6203 85.755 41.905C85.895 42.1897 85.965 42.5397 85.965 42.955C85.965 43.3937 85.8903 43.8067 85.741 44.194C85.5917 44.5767 85.3723 44.9103 85.083 45.195C84.7983 45.4797 84.446 45.7037 84.026 45.867C83.6107 46.0303 83.137 46.112 82.605 46.112C81.9517 46.112 81.359 45.9953 80.827 45.762C80.295 45.524 79.84 45.2043 79.462 44.803L79.854 44.159C79.8913 44.1077 79.9357 44.0657 79.987 44.033C80.043 43.9957 80.1037 43.977 80.169 43.977C80.2297 43.977 80.2973 44.0027 80.372 44.054C80.4513 44.1007 80.54 44.1613 80.638 44.236C80.736 44.3107 80.848 44.3923 80.974 44.481C81.1 44.5697 81.2423 44.6513 81.401 44.726C81.5643 44.8007 81.7487 44.8637 81.954 44.915C82.1593 44.9617 82.3903 44.985 82.647 44.985C82.969 44.985 83.256 44.9407 83.508 44.852C83.76 44.7633 83.9723 44.6397 84.145 44.481C84.3223 44.3177 84.4577 44.124 84.551 43.9C84.6443 43.676 84.691 43.4263 84.691 43.151C84.691 42.8477 84.621 42.6003 84.481 42.409C84.3457 42.213 84.166 42.0497 83.942 41.919C83.718 41.7883 83.4613 41.6787 83.172 41.59C82.8827 41.4967 82.5887 41.4033 82.29 41.31C81.9913 41.212 81.6973 41.1 81.408 40.974C81.1187 40.848 80.862 40.6847 80.638 40.484C80.414 40.2833 80.232 40.0337 80.092 39.735C79.9567 39.4317 79.889 39.0583 79.889 38.615C79.889 38.2603 79.9567 37.9173 80.092 37.586C80.232 37.2547 80.4327 36.9607 80.694 36.704C80.96 36.4473 81.2843 36.242 81.667 36.088C82.0543 35.934 82.4977 35.857 82.997 35.857C83.557 35.857 84.0657 35.9457 84.523 36.123C84.985 36.3003 85.391 36.557 85.741 36.893L85.412 37.537ZM97.1506 40.988C97.1506 41.7393 97.0316 42.43 96.7936 43.06C96.5556 43.6853 96.2196 44.2243 95.7856 44.677C95.3516 45.1297 94.8289 45.482 94.2176 45.734C93.6109 45.9813 92.9389 46.105 92.2016 46.105C91.4642 46.105 90.7922 45.9813 90.1856 45.734C89.5789 45.482 89.0586 45.1297 88.6246 44.677C88.1906 44.2243 87.8546 43.6853 87.6166 43.06C87.3786 42.43 87.2596 41.7393 87.2596 40.988C87.2596 40.2367 87.3786 39.5483 87.6166 38.923C87.8546 38.293 88.1906 37.7517 88.6246 37.299C89.0586 36.8417 89.5789 36.487 90.1856 36.235C90.7922 35.983 91.4642 35.857 92.2016 35.857C92.9389 35.857 93.6109 35.983 94.2176 36.235C94.8289 36.487 95.3516 36.8417 95.7856 37.299C96.2196 37.7517 96.5556 38.293 96.7936 38.923C97.0316 39.5483 97.1506 40.2367 97.1506 40.988ZM95.7576 40.988C95.7576 40.372 95.6736 39.819 95.5056 39.329C95.3376 38.839 95.0996 38.426 94.7916 38.09C94.4836 37.7493 94.1102 37.488 93.6716 37.306C93.2329 37.124 92.7429 37.033 92.2016 37.033C91.6649 37.033 91.1772 37.124 90.7386 37.306C90.2999 37.488 89.9242 37.7493 89.6116 38.09C89.3036 38.426 89.0656 38.839 88.8976 39.329C88.7296 39.819 88.6456 40.372 88.6456 40.988C88.6456 41.604 88.7296 42.157 88.8976 42.647C89.0656 43.1323 89.3036 43.5453 89.6116 43.886C89.9242 44.222 90.2999 44.481 90.7386 44.663C91.1772 44.8403 91.6649 44.929 92.2016 44.929C92.7429 44.929 93.2329 44.8403 93.6716 44.663C94.1102 44.481 94.4836 44.222 94.7916 43.886C95.0996 43.5453 95.3376 43.1323 95.5056 42.647C95.6736 42.157 95.7576 41.604 95.7576 40.988ZM104.785 44.859V46H99.0935V35.969H100.445V44.859H104.785ZM109.787 44.922C110.202 44.922 110.573 44.852 110.9 44.712C111.226 44.572 111.502 44.376 111.726 44.124C111.954 43.872 112.127 43.571 112.244 43.221C112.365 42.871 112.426 42.486 112.426 42.066V35.969H113.777V42.066C113.777 42.6447 113.683 43.1813 113.497 43.676C113.315 44.1707 113.051 44.6 112.706 44.964C112.365 45.3233 111.947 45.6057 111.453 45.811C110.958 46.0163 110.403 46.119 109.787 46.119C109.171 46.119 108.615 46.0163 108.121 45.811C107.626 45.6057 107.206 45.3233 106.861 44.964C106.515 44.6 106.249 44.1707 106.063 43.676C105.881 43.1813 105.79 42.6447 105.79 42.066V35.969H107.141V42.059C107.141 42.479 107.199 42.864 107.316 43.214C107.437 43.564 107.61 43.865 107.834 44.117C108.062 44.369 108.34 44.5673 108.667 44.712C108.998 44.852 109.371 44.922 109.787 44.922ZM122.994 37.11H119.746V46H118.395V37.11H115.14V35.969H122.994V37.11ZM125.84 46H124.482V35.969H125.84V46ZM137.674 40.988C137.674 41.7393 137.555 42.43 137.317 43.06C137.079 43.6853 136.743 44.2243 136.309 44.677C135.875 45.1297 135.352 45.482 134.741 45.734C134.134 45.9813 133.462 46.105 132.725 46.105C131.988 46.105 131.316 45.9813 130.709 45.734C130.102 45.482 129.582 45.1297 129.148 44.677C128.714 44.2243 128.378 43.6853 128.14 43.06C127.902 42.43 127.783 41.7393 127.783 40.988C127.783 40.2367 127.902 39.5483 128.14 38.923C128.378 38.293 128.714 37.7517 129.148 37.299C129.582 36.8417 130.102 36.487 130.709 36.235C131.316 35.983 131.988 35.857 132.725 35.857C133.462 35.857 134.134 35.983 134.741 36.235C135.352 36.487 135.875 36.8417 136.309 37.299C136.743 37.7517 137.079 38.293 137.317 38.923C137.555 39.5483 137.674 40.2367 137.674 40.988ZM136.281 40.988C136.281 40.372 136.197 39.819 136.029 39.329C135.861 38.839 135.623 38.426 135.315 38.09C135.007 37.7493 134.634 37.488 134.195 37.306C133.756 37.124 133.266 37.033 132.725 37.033C132.188 37.033 131.701 37.124 131.262 37.306C130.823 37.488 130.448 37.7493 130.135 38.09C129.827 38.426 129.589 38.839 129.421 39.329C129.253 39.819 129.169 40.372 129.169 40.988C129.169 41.604 129.253 42.157 129.421 42.647C129.589 43.1323 129.827 43.5453 130.135 43.886C130.448 44.222 130.823 44.481 131.262 44.663C131.701 44.8403 132.188 44.929 132.725 44.929C133.266 44.929 133.756 44.8403 134.195 44.663C134.634 44.481 135.007 44.222 135.315 43.886C135.623 43.5453 135.861 43.1323 136.029 42.647C136.197 42.157 136.281 41.604 136.281 40.988ZM147.744 35.969V46H147.065C146.958 46 146.867 45.9813 146.792 45.944C146.722 45.9067 146.652 45.8437 146.582 45.755L140.779 38.195C140.788 38.3117 140.795 38.426 140.8 38.538C140.805 38.65 140.807 38.755 140.807 38.853V46H139.617V35.969H140.317C140.378 35.969 140.429 35.9737 140.471 35.983C140.513 35.9877 140.55 35.9993 140.583 36.018C140.616 36.032 140.648 36.0553 140.681 36.088C140.714 36.116 140.749 36.1533 140.786 36.2L146.589 43.753C146.58 43.6317 146.57 43.515 146.561 43.403C146.556 43.2863 146.554 43.1767 146.554 43.074V35.969H147.744ZM155.439 37.537C155.397 37.607 155.351 37.6607 155.299 37.698C155.253 37.7307 155.194 37.747 155.124 37.747C155.045 37.747 154.952 37.7073 154.844 37.628C154.737 37.5487 154.602 37.4623 154.438 37.369C154.28 37.271 154.086 37.1823 153.857 37.103C153.633 37.0237 153.36 36.984 153.038 36.984C152.735 36.984 152.467 37.026 152.233 37.11C152.005 37.1893 151.811 37.299 151.652 37.439C151.498 37.579 151.382 37.7447 151.302 37.936C151.223 38.1227 151.183 38.3257 151.183 38.545C151.183 38.825 151.251 39.0583 151.386 39.245C151.526 39.427 151.708 39.5833 151.932 39.714C152.161 39.8447 152.418 39.959 152.702 40.057C152.992 40.1503 153.286 40.2483 153.584 40.351C153.888 40.4537 154.182 40.5703 154.466 40.701C154.756 40.827 155.012 40.988 155.236 41.184C155.465 41.38 155.647 41.6203 155.782 41.905C155.922 42.1897 155.992 42.5397 155.992 42.955C155.992 43.3937 155.918 43.8067 155.768 44.194C155.619 44.5767 155.4 44.9103 155.11 45.195C154.826 45.4797 154.473 45.7037 154.053 45.867C153.638 46.0303 153.164 46.112 152.632 46.112C151.979 46.112 151.386 45.9953 150.854 45.762C150.322 45.524 149.867 45.2043 149.489 44.803L149.881 44.159C149.919 44.1077 149.963 44.0657 150.014 44.033C150.07 43.9957 150.131 43.977 150.196 43.977C150.257 43.977 150.325 44.0027 150.399 44.054C150.479 44.1007 150.567 44.1613 150.665 44.236C150.763 44.3107 150.875 44.3923 151.001 44.481C151.127 44.5697 151.27 44.6513 151.428 44.726C151.592 44.8007 151.776 44.8637 151.981 44.915C152.187 44.9617 152.418 44.985 152.674 44.985C152.996 44.985 153.283 44.9407 153.535 44.852C153.787 44.7633 154 44.6397 154.172 44.481C154.35 44.3177 154.485 44.124 154.578 43.9C154.672 43.676 154.718 43.4263 154.718 43.151C154.718 42.8477 154.648 42.6003 154.508 42.409C154.373 42.213 154.193 42.0497 153.969 41.919C153.745 41.7883 153.489 41.6787 153.199 41.59C152.91 41.4967 152.616 41.4033 152.317 41.31C152.019 41.212 151.725 41.1 151.435 40.974C151.146 40.848 150.889 40.6847 150.665 40.484C150.441 40.2833 150.259 40.0337 150.119 39.735C149.984 39.4317 149.916 39.0583 149.916 38.615C149.916 38.2603 149.984 37.9173 150.119 37.586C150.259 37.2547 150.46 36.9607 150.721 36.704C150.987 36.4473 151.312 36.242 151.694 36.088C152.082 35.934 152.525 35.857 153.024 35.857C153.584 35.857 154.093 35.9457 154.55 36.123C155.012 36.3003 155.418 36.557 155.768 36.893L155.439 37.537Z" fill="#272727"/>
<defs>
<filter id="filter0_d" x="0" y="0" width="72" height="72" filterUnits="userSpaceOnUse" color-interpolation-filters="sRGB">
<feFlood flood-opacity="0" result="BackgroundImageFix"/>
<feColorMatrix in="SourceAlpha" type="matrix" values="0 0 0 0 0 0 0 0 0 0 0 0 0 0 0 0 0 0 127 0"/>
<feOffset dy="4"/>
<feGaussianBlur stdDeviation="3"/>
<feColorMatrix type="matrix" values="0 0 0 0 0 0 0 0 0 0 0 0 0 0 0 0 0 0 0.25 0"/>
<feBlend mode="normal" in2="BackgroundImageFix" result="effect1_dropShadow"/>
<feBlend mode="normal" in="SourceGraphic" in2="effect1_dropShadow" result="shape"/>
</filter>
</defs>
</svg>
